<?xml version="1.0" standalone="no"?>
<!DOCTYPE svg PUBLIC "-//W3C//DTD SVG 20010904//EN"
 "http://www.w3.org/TR/2001/REC-SVG-20010904/DTD/svg10.dtd">
<svg version="1.0" xmlns="http://www.w3.org/2000/svg"
 width="1331.000000pt" height="1331.000000pt" viewBox="0 0 1331.000000 1331.000000"
 preserveAspectRatio="xMidYMid meet">
<metadata>
Created by potrace 1.11, written by Peter Selinger 2001-2013
</metadata>
<g transform="translate(0.000000,1331.000000) scale(0.100000,-0.100000)"
fill="#000000" stroke="none">
<path d="M6487 10794 c-1 -1 -65 -5 -142 -9 -77 -4 -160 -8 -185 -10 -25 -2
-85 -6 -135 -10 -49 -3 -101 -8 -115 -10 -14 -2 -52 -7 -85 -10 -161 -16 -345
-41 -485 -65 -30 -5 -71 -12 -90 -15 -19 -3 -46 -8 -60 -10 -36 -8 -67 -13
-135 -26 -33 -6 -64 -12 -70 -13 -5 -2 -37 -8 -70 -15 -677 -141 -1408 -405
-1980 -714 -166 -90 -461 -268 -520 -314 -6 -4 -33 -24 -60 -43 -62 -42 -238
-172 -245 -180 -3 -3 -27 -24 -55 -45 -27 -22 -58 -48 -69 -57 -10 -10 -50
-43 -87 -75 -66 -57 -279 -268 -370 -368 -68 -75 -199 -242 -272 -347 -300
-431 -482 -899 -534 -1378 -17 -154 -9 -782 11 -910 2 -14 7 -47 11 -75 51
-383 207 -832 415 -1190 29 -50 61 -105 72 -124 50 -87 179 -264 306 -421 102
-125 391 -416 517 -520 50 -41 92 -77 95 -81 3 -3 66 -50 140 -106 145 -108
375 -261 505 -335 44 -25 103 -58 130 -74 85 -48 374 -189 490 -238 61 -26
119 -51 130 -56 97 -43 640 -238 640 -229 0 1 127 -34 180 -50 138 -43 627
-151 790 -175 45 -7 86 -14 130 -21 39 -7 227 -33 285 -40 25 -3 56 -8 70 -10
14 -2 59 -7 100 -10 41 -3 86 -8 100 -10 14 -2 68 -7 120 -10 52 -4 106 -9
120 -10 213 -26 1197 -26 1460 0 19 2 76 6 125 10 50 3 101 8 115 10 14 2 61
6 104 10 43 4 86 8 95 10 15 2 75 10 166 21 22 2 51 7 65 9 14 2 45 7 70 10
25 3 96 15 158 26 62 11 125 22 140 24 15 2 50 8 77 14 53 11 67 14 130 26 22
5 45 9 50 11 9 2 141 31 176 39 55 12 318 84 454 125 274 83 612 211 860 325
100 46 337 164 350 175 6 4 42 24 80 45 151 81 478 295 600 392 17 13 35 27
40 31 38 29 101 79 111 87 6 6 40 35 75 65 477 410 849 911 1066 1435 102 244
194 571 219 775 3 19 9 62 14 95 18 112 24 260 24 535 0 281 -7 406 -29 530
-3 14 -7 41 -10 60 -15 97 -103 421 -124 455 -3 6 -6 12 -6 15 -3 31 -146 336
-215 460 -49 88 -213 327 -291 425 -256 322 -572 617 -939 876 -119 84 -254
174 -307 204 -10 6 -56 33 -103 61 -559 339 -1362 647 -2110 810 -19 4 -39 9
-45 10 -5 1 -32 7 -60 13 -27 6 -61 13 -75 16 -31 6 -175 33 -215 39 -139 23
-234 38 -255 41 -14 2 -43 6 -65 9 -83 11 -202 26 -256 31 -31 2 -72 7 -90 9
-19 3 -68 8 -109 10 -41 3 -109 8 -150 11 -41 3 -115 8 -165 11 -83 6 -793 13
-798 8z"/>
</g>
</svg>
